<svg width="86" height="24" viewBox="0 0 86 24" fill="none" xmlns="http://www.w3.org/2000/svg">
<rect x="62.5" y="0.5" width="23" height="23" rx="2.5" stroke="#10CC9F"/>
<path d="M77.64 11.704C77.64 12.4 77.544 13.032 77.352 13.6C77.168 14.168 76.892 14.648 76.524 15.04C76.156 15.432 75.696 15.72 75.144 15.904L77.196 18.04H75.648L73.992 16.108C73.944 16.108 73.892 16.108 73.836 16.108C73.788 16.116 73.74 16.12 73.692 16.12C73.02 16.12 72.436 16.016 71.94 15.808C71.444 15.592 71.032 15.292 70.704 14.908C70.376 14.516 70.132 14.048 69.972 13.504C69.812 12.96 69.732 12.356 69.732 11.692C69.732 10.812 69.876 10.044 70.164 9.388C70.452 8.732 70.888 8.22 71.472 7.852C72.064 7.484 72.808 7.3 73.704 7.3C74.56 7.3 75.28 7.484 75.864 7.852C76.448 8.212 76.888 8.724 77.184 9.388C77.488 10.044 77.64 10.816 77.64 11.704ZM70.872 11.704C70.872 12.424 70.972 13.044 71.172 13.564C71.372 14.084 71.68 14.484 72.096 14.764C72.52 15.044 73.052 15.184 73.692 15.184C74.34 15.184 74.868 15.044 75.276 14.764C75.692 14.484 76 14.084 76.2 13.564C76.4 13.044 76.5 12.424 76.5 11.704C76.5 10.624 76.276 9.78 75.828 9.172C75.38 8.556 74.672 8.248 73.704 8.248C73.056 8.248 72.52 8.388 72.096 8.668C71.68 8.94 71.372 9.336 71.172 9.856C70.972 10.368 70.872 10.984 70.872 11.704Z" fill="#10CC9F"/>
<path d="M13.836 8.26C13.38 8.26 12.968 8.34 12.6 8.5C12.232 8.652 11.92 8.88 11.664 9.184C11.408 9.48 11.212 9.844 11.076 10.276C10.94 10.7 10.872 11.18 10.872 11.716C10.872 12.42 10.98 13.032 11.196 13.552C11.42 14.072 11.748 14.472 12.18 14.752C12.62 15.032 13.168 15.172 13.824 15.172C14.2 15.172 14.556 15.14 14.892 15.076C15.228 15.012 15.556 14.932 15.876 14.836V15.772C15.556 15.892 15.224 15.98 14.88 16.036C14.544 16.092 14.14 16.12 13.668 16.12C12.796 16.12 12.068 15.94 11.484 15.58C10.9 15.22 10.46 14.708 10.164 14.044C9.876 13.38 9.732 12.6 9.732 11.704C9.732 11.056 9.82 10.464 9.996 9.928C10.18 9.392 10.444 8.928 10.788 8.536C11.14 8.144 11.572 7.844 12.084 7.636C12.596 7.42 13.184 7.312 13.848 7.312C14.288 7.312 14.712 7.356 15.12 7.444C15.528 7.532 15.892 7.656 16.212 7.816L15.78 8.728C15.516 8.608 15.22 8.5 14.892 8.404C14.572 8.308 14.22 8.26 13.836 8.26ZM19.75 15.256C19.91 15.256 20.074 15.244 20.242 15.22C20.41 15.188 20.546 15.156 20.65 15.124V15.928C20.538 15.984 20.378 16.028 20.17 16.06C19.962 16.1 19.762 16.12 19.57 16.12C19.234 16.12 18.922 16.064 18.634 15.952C18.354 15.832 18.126 15.628 17.95 15.34C17.774 15.052 17.686 14.648 17.686 14.128V10.384H16.774V9.88L17.698 9.46L18.118 8.092H18.742V9.568H20.602V10.384H18.742V14.104C18.742 14.496 18.834 14.788 19.018 14.98C19.21 15.164 19.454 15.256 19.75 15.256ZM24.938 9.448C25.058 9.448 25.186 9.456 25.322 9.472C25.466 9.48 25.59 9.496 25.694 9.52L25.562 10.492C25.458 10.468 25.342 10.448 25.214 10.432C25.094 10.416 24.978 10.408 24.866 10.408C24.618 10.408 24.382 10.46 24.158 10.564C23.934 10.668 23.734 10.816 23.558 11.008C23.382 11.192 23.242 11.416 23.138 11.68C23.042 11.944 22.994 12.24 22.994 12.568V16H21.938V9.568H22.802L22.922 10.744H22.97C23.106 10.504 23.27 10.288 23.462 10.096C23.654 9.896 23.874 9.74 24.122 9.628C24.37 9.508 24.642 9.448 24.938 9.448ZM27.951 16H26.895V6.88H27.951V16Z" fill="#10CC9F"/>
<rect x="0.5" y="0.5" width="37" height="23" rx="2.5" stroke="#10CC9F"/>
<path d="M49.5815 12.2612H46.7471V11.1626H49.5815V8.31348H50.6802V11.1626H53.5146V12.2612H50.6802V15.0811H49.5815V12.2612Z" fill="#10CC9F"/>
</svg>
